<svg xmlns="http://www.w3.org/2000/svg" width="98" height="40"><path d="M61.863 1.68c-.965.164-2.008.996-2.652 2.113-1.148 2.008-1.543 2.676-2.145 3.637a63 63 0 0 1-1.007 1.554c-.77 1.121-1.118 1.614-1.356 1.918a15 15 0 0 0-.656.934c-.442.68-.563.734-.879.441-.84-.785-2.898-2.183-4.176-2.836-2.898-1.468-4.87-2.086-8.262-2.57-1.949-.281-5.07-.164-7.128.277-.875.184-2.094.512-2.563.696-.227.086-.64.242-.926.343-.894.32-2.25.958-2.89 1.356-3.153 1.965-5.102 3.723-7.067 6.367-.355.48-.816 1.149-1.023 1.485-.524.87-.563.898-1.301.898a5.28 5.28 0 0 1-4.95-3.34 7.5 7.5 0 0 1-.323-1.23c-.106-.625-.114-.848-.032-1.344.2-1.277.817-2.078 1.598-2.078.594 0 .898.355 1.016 1.183.039.32.152.723.238.887.187.395.586.727.855.742.121 0 .27.016.332.024.414.043.887-.325 1.204-.93.16-.297.183-.465.183-1.184 0-.793-.015-.87-.262-1.375-.632-1.285-1.964-2.14-3.343-2.14-.418 0-1.258.183-1.703.375-1.098.472-2.211 1.637-2.72 2.86-.425 1.023-.527 1.597-.519 3.077 0 1.172.031 1.516.184 2.114.273 1.144.344 1.336.965 2.636 1.008 2.125 2.883 3.953 5.195 5.063.484.238.5.246.445.504-.136.71-.199.808-.738 1.078a7 7 0 0 1-.91.383c-.215.074-.469.16-.555.203-.086.035-.887.293-1.781.566-3.297.996-4.668 1.555-6 2.426-.781.512-1.906 1.613-2.344 2.277a7.45 7.45 0 0 0-1.133 3.227c-.109 1.125.399 2.598 1.254 3.625.211.25.38.48.38.512 0 .039-.872.066-1.934.058-1.063-.008-1.973.016-2.02.04-.129.077-.11 1.003.016 1.003.746.016 15.289.082 26.554.113 7.93.032 19.395.067 25.47.086 6.077.024 18.237.059 27.015.082 8.777.024 16.129.063 16.344.09.484.063 1.14-.035 1.28-.183.153-.145.16-.696.012-.817-.074-.062-1.285-.105-4.097-.136-2.195-.016-3.992-.047-4.008-.063-.016-.008.117-.234.293-.48.797-1.157 1.394-2.5 1.68-3.84.207-.969.265-2.407.148-3.332-.117-.871-.57-2.317-.918-2.942-.137-.238-.3-.527-.363-.636-.383-.672-1.371-1.797-2.117-2.415-.918-.757-2.407-1.546-3.5-1.859a4 4 0 0 1-.54-.183c-.066-.047-.128-.407-.167-1.063-.07-.926-.387-2.535-.766-3.828-.285-.988-1.457-3.176-2.297-4.277-.344-.457-.508-.747-.508-.887 0-.13.07-.602.157-1.063.394-2.093.246-5.41-.293-6.511-.403-.82-.832-1.11-1.649-1.11-.64.008-1.12.192-2.097.824a314 314 0 0 1-3.668 2.325l-.707.43-.762-.145c-.418-.078-.942-.176-1.16-.215-.215-.04-1.07-.086-1.895-.094l-1.508-.027-.14-.598c-.41-1.695-1.188-3.242-2.121-4.258-.461-.503-.832-.734-1.27-.796-.2-.036-.414-.075-.473-.082-.066-.016-.289 0-.496.035m1 1.25c.996.511 2.266 3.21 2.59 5.52.152 1.093.055 3.234-.195 4.234-.113.453-.207.91-.207 1.015 0 .262.37.543.633.48.3-.074.445-.32.629-1.074.324-1.363.417-2.527.324-4l-.043-.597.832-.024c3.004-.097 6.402.965 8.953 2.793 1.262.895 2.644 2.344 3.508 3.645.601.898 1.422 2.562 1.746 3.527.558 1.672.758 2.715.824 4.328l.047 1.168.355.055c1.11.172 2.559.758 3.57 1.465.66.445 1.696 1.445 2.126 2.035.437.598 1.093 1.965 1.285 2.676.719 2.707-.016 5.797-1.918 8.02l-.484.566-14.504-.063c-7.97-.035-15.426-.066-16.559-.078-1.133-.02-7.367-.035-13.855-.035l-11.797-.008-.563-.582c-.926-.953-1.394-2.062-1.394-3.332 0-1.437.605-2.691 1.87-3.922.657-.629 1.223-1.02 2.329-1.613 1.015-.535 1.226-.621 4.039-1.621 2.3-.809 4.09-1.805 5.453-3.028.5-.445.516-.925.04-1.132-.325-.13-.434-.075-1.056.504-1.078 1.011-2.668 1.82-5.82 2.953a34 34 0 0 0-2.719 1.117c-2.797 1.312-4.636 3.277-5.117 5.465-.176.765-.183 2.043-.015 2.675.148.567.617 1.532.972 2.016.145.188.262.371.262.406 0 .032-5.102.047-11.336.032L6.324 38.5l-.492-.363c-.941-.676-1.64-1.645-1.902-2.633-.246-.953-.086-1.988.468-3.117.715-1.453 1.754-2.403 3.575-3.313 1.078-.535 1.953-.855 4.554-1.637.672-.21 1.664-.535 2.192-.73.531-.191.976-.348 1-.348.031 0-.016.368-.196 1.66-.09.614-.082.672.07.88.216.292.595.328.84.078.157-.157.196-.305.239-.899.387-5.32 2.777-10.371 6.758-14.258 3.254-3.191 6.89-5.027 11.437-5.8 1.04-.176 4.16-.243 5.324-.114 3.563.395 6.875 1.528 9.793 3.364.727.457 2.223 1.574 2.684 2.003l.176.168-.246.329c-1.078 1.398-3.914 4.558-5.524 6.16-.484.476-.879.898-.879.933 0 .032.68.407 1.52.828l1.523.77-.207.16c-.117.078-.832.55-1.582 1.035-.754.48-1.433.922-1.508.977-.078.047-.14.11-.14.144 0 .047 4.11 3.13 4.61 3.45.284.191.609.136.8-.13.293-.398.172-.542-1.688-1.925-.933-.692-1.703-1.293-1.703-1.332 0-.055.649-.496 2.996-2.012.329-.223.61-.422.61-.45 0-.03-.739-.429-1.633-.894-.895-.46-1.64-.863-1.656-.886-.024-.02.375-.47.863-.996 4.191-4.457 7.477-8.868 10.512-14.114.875-1.511 1.492-2.293 1.965-2.508.617-.273.918-.28 1.386-.05m15.735 2.648c.285.293.449.852.562 1.953.14 1.399-.015 4.45-.238 4.45-.031 0-.176-.118-.317-.274-.238-.246-.261-.309-.214-.578.414-2.414.37-4.059-.102-4.602-.184-.199-.254-.234-.445-.183-.301.078-1.18.941-1.953 1.922-.352.441-.668.824-.696.863-.05.055-.625-.184-1.66-.68l-.347-.164.218-.187c.13-.094.317-.223.43-.286.11-.054.39-.218.602-.351 3.351-2.117 3.328-2.102 3.707-2.11.144 0 .308.079.453.227m-.676 2.984c-.05.86-.23 2.126-.309 2.204-.031.027-1.187-.743-1.422-.95-.043-.039.079-.265.266-.52.344-.452 1.414-1.628 1.492-1.628.016 0 .008.41-.027.894m-62.535.282c.5.222.894.597 1.195 1.125.215.383.262.543.277 1.054.016.528 0 .63-.168.84l-.18.23-.128-.198c-.07-.114-.164-.457-.211-.774-.125-.937-.422-1.387-1.117-1.687-.516-.235-.953-.282-1.434-.168-1.371.336-2.203 1.726-2.203 3.683 0 2.739 1.629 5.137 4.098 6.035.68.25 1.511.426 2.015.426.29 0 .39.024.36.094-.024.055-.223.504-.446.992a17 17 0 0 0-.617 1.582c-.129.406-.254.688-.316.688-.063 0-.325-.114-.602-.25-3.281-1.668-5.48-5.192-5.46-8.739.007-1.172.16-1.933.573-2.793.524-1.097 1.29-1.8 2.36-2.175.648-.23 1.441-.215 2.004.035m0 0" style="stroke:none;fill-rule:nonzero;fill:#000;fill-opacity:1"/><path d="M61.445 4.688c-.547.296-.8.761-1.804 3.269-.668 1.66-1.672 4.422-1.625 4.465.015.015.363-.027.777-.082 1.027-.152 3.539-.281 4.793-.254l1.027.016-.008-1.516c-.007-1.242-.039-1.672-.18-2.344-.437-2.086-.945-3.156-1.679-3.527-.367-.195-.969-.203-1.3-.027m1.078 1.343c.461.696.934 2.602.997 4.04l.05.929-1.418.008c-.777.008-1.656.039-1.953.062-.37.04-.535.024-.535-.039 0-.265 1.813-4.73 2.098-5.176.191-.296.5-.226.761.176M72.363 19.945c-1.379 1.383-3.265 1.508-4.91.32-.89-.64-1.238.079-.406.844 1.117 1.024 2.851 1.368 4.34.856 1.187-.414 2.3-1.352 2.3-1.95 0-.292-.265-.527-.597-.527-.227 0-.348.082-.727.457M76.734 19.688c-.109.105-.199.257-.199.335 0 .22.246.575.668.993 1.242 1.234 3.192 1.332 4.45.214.35-.312.523-.68.421-.878-.113-.207-.363-.176-.781.097-.488.309-1.207.559-1.637.559-.644 0-1.203-.281-1.836-.93-.34-.351-.64-.59-.738-.59-.086 0-.242.09-.348.2M81.902 27.484c-.445.102-.746.29-1.191.696a2.77 2.77 0 0 0-.832 2.457 2.77 2.77 0 0 0 .816 1.597c.547.559 1.086.762 2.188.809l.847.047.145.926c.195 1.226.29 1.226.625.011l.254-.922.68-.046c1.293-.086 2.144-.75 2.55-1.98.309-.95-.023-2.25-.734-2.884-.531-.472-.977-.656-1.754-.726-.926-.082-3.223-.074-3.594.015m4.317.653c.61.304.965.715.902 1.047a.93.93 0 0 1-.262.441l-.222.191-1.774-.046a92 92 0 0 0-2.636-.055c-.856 0-.875 0-1.102-.235-.39-.39-.246-.832.402-1.246.508-.32.754-.351 2.535-.336 1.688.016 1.715.016 2.157.239m0 0" style="stroke:none;fill-rule:nonzero;fill:#000;fill-opacity:1"/></svg>